<?xml version="1.0"?>
<svg xmlns="http://www.w3.org/2000/svg" xmlns:xlink="http://www.w3.org/1999/xlink" xmlns:svgjs="http://svgjs.com/svgjs" version="1.1" width="512" height="512" x="0" y="0" viewBox="0 0 497.696 497" style="enable-background:new 0 0 512 512" xml:space="preserve" class=""><g><path xmlns="http://www.w3.org/2000/svg" d="m175.589844 202.691406 87.996094-87.996094 11.316406 11.3125-88 87.996094zm0 0" fill="#aa3c3b" data-original="#000000" style="" class=""/><path xmlns="http://www.w3.org/2000/svg" d="m271.589844 106.691406 7.996094-7.996094 11.316406 11.3125-8 8zm0 0" fill="#aa3c3b" data-original="#000000" style="" class=""/><path xmlns="http://www.w3.org/2000/svg" d="m287.59375 90.691406 9.371094-9.375 11.316406 11.3125-9.375 9.375zm0 0" fill="#aa3c3b" data-original="#000000" style="" class=""/><path xmlns="http://www.w3.org/2000/svg" d="m213.480469 310.394531-11.65625-10.957031 10.960937-11.65625 11.65625 10.957031zm-23.3125-21.925781-11.65625-10.960938 10.960937-11.65625 11.65625 10.960938zm0 0" fill="#aa3c3b" data-original="#000000" style="" class=""/><path xmlns="http://www.w3.org/2000/svg" d="m406.550781 18.277344c-12.527343-11.5625-28.816406-17.929688-45.863281-17.929688-18.054688 0-35.039062 7.03125-47.808594 19.808594l-194.75 194.75 11.3125 11.3125 194.75-194.75c9.753906-9.753906 22.710938-15.121094 36.496094-15.121094 13.007812 0 25.449219 4.855469 35.007812 13.6875l57.921876 53.464844c-11.417969 23.40625-52.882813 104.792969-99.28125 151.191406-47.777344 47.769532-120.992188 89.625-138.886719 99.527344l-63.082031-59.351562-10.960938 11.65625 96.425781 90.71875 5.054688-2.679688c3.671875-1.949219 90.5625-48.359375 146.761719-104.558594 56.359374-56.359375 103.625-158 105.609374-162.304687l2.4375-5.277344zm-28.207031 240.414062c-46.960938 46.960938-118.519531 88.207032-137.945312 99l-12.710938-11.960937c23.992188-13.453125 91.464844-53.222657 137.960938-99.726563 46.136718-46.128906 86.152343-122.566406 100.246093-151.160156l12.335938 11.382812c-10.488281 21.648438-52.636719 105.226563-99.886719 152.464844zm0 0" fill="#aa3c3b" data-original="#000000" style="" class=""/><g xmlns="http://www.w3.org/2000/svg" fill="#f0bc5e"><path d="m46.449219 384.347656c-25.617188 0-46.449219-20.832031-46.449219-46.449218 0-13.476563 5.839844-26.269532 16.023438-35.101563l98.527343-85.386719c6.746094-5.847656 15.378907-9.0625 24.3125-9.0625 20.480469 0 37.136719 16.65625 37.136719 37.136719 0 8.925781-3.222656 17.558594-9.070312 24.320313l-85.386719 98.519531c-8.832031 10.183593-21.621094 16.023437-35.09375 16.023437zm0 0" fill="#aa3c3b" data-original="#f0bc5e" style="" class=""/><path d="m360 80.347656c-13.230469 0-24-10.769531-24-24 0-13.230468 10.769531-24 24-24s24 10.769532 24 24c0 13.230469-10.769531 24-24 24zm0 0" fill="#aa3c3b" data-original="#f0bc5e" style="" class=""/></g></g></svg>
