<?xml version="1.0"?>
<svg xmlns="http://www.w3.org/2000/svg" xmlns:xlink="http://www.w3.org/1999/xlink" xmlns:svgjs="http://svgjs.com/svgjs" version="1.1" width="512" height="512" x="0" y="0" viewBox="0 0 64 64" style="enable-background:new 0 0 512 512" xml:space="preserve" class=""><g><path xmlns="http://www.w3.org/2000/svg" d="m47.071 20.857-.143-1.995c.656-.047 1.309-.106 1.955-.176l.217 1.988c-.67.073-1.347.134-2.029.183zm4.054-.448-.301-1.978c.652-.099 1.294-.211 1.924-.337l.393 1.961c-.66.132-1.333.25-2.016.354zm4.019-.808-.496-1.938c.639-.164 1.26-.343 1.861-.538l.616 1.903c-.64.207-1.302.398-1.981.573z" fill="#f2f2f2" data-original="#000000" style="" class=""/><path xmlns="http://www.w3.org/2000/svg" d="m22.433 45.981-1.414-1.414-2.519 2.519-1.586-1.586 2.519-2.519-1.414-1.414-2.519 2.519-1.5-1.5-11.464 11.464c-.991.991-1.536 2.307-1.536 3.707 0 2.891 2.352 5.243 5.243 5.243 1.4 0 2.717-.545 3.707-1.536l11.464-11.464-1.5-1.5zm-13.897 14.069c-.613.613-1.427.95-2.293.95-1.788 0-3.243-1.455-3.243-3.243 0-.866.337-1.68.95-2.293l10.05-10.05 4.586 4.586z" fill="#f2f2f2" data-original="#000000" style="" class=""/><path xmlns="http://www.w3.org/2000/svg" d="m47.071 36.857-.143-1.995c.656-.047 1.309-.106 1.955-.176l.217 1.988c-.67.073-1.347.134-2.029.183zm4.054-.448-.301-1.978c.652-.099 1.294-.211 1.924-.337l.393 1.961c-.66.132-1.333.25-2.016.354zm4.019-.808-.496-1.938c.639-.164 1.26-.343 1.861-.538l.616 1.903c-.64.207-1.302.398-1.981.573z" fill="#f2f2f2" data-original="#000000" style="" class=""/><path xmlns="http://www.w3.org/2000/svg" d="m43 13c-1.433 0-14-.112-14-4s12.567-4 14-4 14 .112 14 4-12.567 4-14 4z" fill="#f2f2f2" data-original="#f0bc5e" style="" class=""/><path xmlns="http://www.w3.org/2000/svg" d="m43 1c-9.695 0-20 2.804-20 8v12.348h2v-8.708c3.463 2.851 10.892 4.36 18 4.36s14.537-1.509 18-4.36v4.36c0 2.838-7.392 6-18 6-1.09 0-2.185-.035-3.253-.104l-.129 1.996c1.111.071 2.249.108 3.382.108 7.108 0 14.537-1.509 18-4.36v4.36c0 2.701-7.044 5.827-17.152 5.993l.033 2c8.541-.141 14.304-2.025 17.119-4.417v4.424c0 2.838-7.393 6-18 6l-.343-.001-.009 2 .352.001c9.695 0 20-2.804 20-8v-24c0-5.196-10.305-8-20-8zm0 14c-10.608 0-18-3.162-18-6s7.392-6 18-6 18 3.162 18 6-7.392 6-18 6z" fill="#f2f2f2" data-original="#000000" style="" class=""/><path xmlns="http://www.w3.org/2000/svg" d="m47 47h10v5h-10z" fill="#f2f2f2" data-original="#f0bc5e" style="" class=""/><path xmlns="http://www.w3.org/2000/svg" d="m56 57h-6c-3.86 0-7-3.14-7-7v-7h13c3.86 0 7 3.14 7 7s-3.14 7-7 7zm-11-12v5c0 2.757 2.243 5 5 5h6c2.757 0 5-2.243 5-5s-2.243-5-5-5z" fill="#f2f2f2" data-original="#000000" style="" class=""/><path xmlns="http://www.w3.org/2000/svg" d="m13 1h-4c-4.411 0-8 3.589-8 8s3.589 8 8 8h12v-8c0-4.411-3.589-8-8-8zm6 14h-10c-3.309 0-6-2.691-6-6s2.691-6 6-6h4c3.309 0 6 2.691 6 6z" fill="#f2f2f2" data-original="#000000" style="" class=""/><path xmlns="http://www.w3.org/2000/svg" d="m15 5h-2v6h-2v-4h-2v4h-2v-6h-2v8h12v-2h-2z" fill="#f2f2f2" data-original="#000000" style="" class=""/><path xmlns="http://www.w3.org/2000/svg" d="m30 49c-8.271 0-15-6.729-15-15s6.729-15 15-15 15 6.729 15 15-6.729 15-15 15zm0-25c-5.514 0-10 4.486-10 10s4.486 10 10 10 10-4.486 10-10-4.486-10-10-10z" fill="#f2f2f2" data-original="#f0bc5e" style="" class=""/><path xmlns="http://www.w3.org/2000/svg" d="m30 23c-6.065 0-11 4.935-11 11s4.935 11 11 11 11-4.935 11-11-4.935-11-11-11zm8.397 7.788c-6.986-.647-11.527-2.628-12.926-4.552 1.332-.781 2.877-1.236 4.529-1.236 3.83 0 7.1 2.409 8.397 5.788zm-17.397 3.212c0-2.136.752-4.099 2-5.644v4.644c0 3.559 5.105 6.439 13.162 7.542-1.612 1.519-3.777 2.458-6.162 2.458-4.962 0-9-4.038-9-9zm16.656 4.707c-8.218-.902-12.656-3.58-12.656-5.707v-4.389c2.617 2.176 7.629 3.731 13.916 4.224.05.382.084.769.084 1.165 0 1.727-.497 3.335-1.344 4.707z" fill="#f2f2f2" data-original="#000000" style="" class=""/><path xmlns="http://www.w3.org/2000/svg" d="m47 47h2v2h-2z" fill="#f2f2f2" data-original="#000000" style="" class=""/><path xmlns="http://www.w3.org/2000/svg" d="m51 47h2v2h-2z" fill="#f2f2f2" data-original="#000000" style="" class=""/><path xmlns="http://www.w3.org/2000/svg" d="m47 51h12v2h-12z" fill="#f2f2f2" data-original="#000000" style="" class=""/><path xmlns="http://www.w3.org/2000/svg" d="m55 47h2v2h-2z" fill="#f2f2f2" data-original="#000000" style="" class=""/></g></svg>
