<?xml version="1.0"?>
<svg xmlns="http://www.w3.org/2000/svg" xmlns:xlink="http://www.w3.org/1999/xlink" xmlns:svgjs="http://svgjs.com/svgjs" version="1.1" width="512" height="512" x="0" y="0" viewBox="0 0 512 512" style="enable-background:new 0 0 512 512" xml:space="preserve" class=""><g><path xmlns="http://www.w3.org/2000/svg" d="M485.949,188.7,440,155.883V140.6c9.731-6.155,32-23.426,32-52.6a8,8,0,0,0-16,0c0,20.148-15.747,33.166-23.45,38.33l-28.423-21.864c13.631-8.038,30.631-24.692,27.844-57.151a8,8,0,0,0-15.942,1.37c2.408,28.038-13.719,40-25.9,45.009L364.717,74.15c-2.275-11-5.259-32.52,2.3-46.3a8,8,0,0,0-14.03-7.692c-6.565,11.975-7.482,26.964-6.443,40.016L332.878,49.659a6.434,6.434,0,0,0-1.482-.9,20.9,20.9,0,0,1-6.189-5.4c-3.9-4.957-5.655-11.315-5.22-18.9a8,8,0,0,0-15.974-.916c-1.486,25.913,15.309,36.838,19.658,39.221L424,139.939V152H408a8.008,8.008,0,0,0-2.875.534l-1.234.476-28.557-15.99a8,8,0,0,0-11.4,4.169,73.026,73.026,0,0,0-3.73,28.621l-56.715,21.814-29.551-7.386a8,8,0,0,0-5.518.607l-13.635,6.817-123.024-21.71a40.123,40.123,0,0,0-25.51,3.949c-1.382.728-2.669,1.422-3.9,2.1H61.67a39.818,39.818,0,0,0-37.148,25.149l-7.95,19.88A8,8,0,0,0,24,232H43.936c-10.3,21.916-10.581,46.417-.662,71.663A136.238,136.238,0,0,0,62.667,337.3l-29.978,67.45a8.008,8.008,0,0,0-.352,5.548l24,80A8,8,0,0,0,64,496h40a8,8,0,0,0,8-8V472a8,8,0,0,0-2.343-5.657L95.542,452.229,88.352,401.9l30.037-45.05A19.745,19.745,0,0,1,146.673,352a40.282,40.282,0,0,0,24,8h85.922l7.431,96.613a8.017,8.017,0,0,0,.216,1.327l8,32A8,8,0,0,0,280,496h40a8,8,0,0,0,8-8V472a8,8,0,0,0-2.343-5.657L312.24,452.926l7.379-103.3c10.194-4.775,30.578-18.977,32.269-56.558C380.814,278.715,403.147,261.3,419.94,240H472a24.028,24.028,0,0,0,24-24v-7.77A24.079,24.079,0,0,0,485.949,188.7ZM376.693,156.118,392,164.689v30.757a32.9,32.9,0,0,1-12.489-13.717C375.322,172.915,375.612,163.094,376.693,156.118ZM35.815,216l3.563-8.909A23.894,23.894,0,0,1,61.67,192H77.687A125.6,125.6,0,0,0,53.6,216ZM96,475.313V480H69.952l-4.8-16H84.686ZM312,480H286.246l-4-16h18.44L312,475.313ZM480,216a8.009,8.009,0,0,1-8,8H416a8,8,0,0,0-6.4,3.2c-16.281,21.735-38.859,39.258-69.026,53.568A8,8,0,0,0,336,288c0,40.667-24.961,47.97-25.94,48.239a8,8,0,0,0-6.039,7.191L296.551,448H279.408l-7.431-96.613a8,8,0,0,0-4.388-6.535h0a78.124,78.124,0,0,1-14.569-10.088C247.081,329.513,240,321.3,240,312a8,8,0,0,0-16,0c0,13.159,7.391,24.023,15.516,32H170.67a24.173,24.173,0,0,1-14.4-4.8,35.744,35.744,0,0,0-51.2,8.774l-31.73,47.589a8,8,0,0,0-1.263,5.57L78.776,448H60.352L48.514,408.54l30.8-69.291a8.019,8.019,0,0,0-1.405-8.645,118.386,118.386,0,0,1-19.912-33.233C48.224,272.165,50.35,249,64.313,228.5c9.292-13.648,23.968-26.2,43.635-37.3,1.763-1,3.647-2.027,5.75-3.134a24.063,24.063,0,0,1,15.282-2.356l125.63,22.17a7.98,7.98,0,0,0,4.968-.723l13.353-6.676,29.116,7.279a8,8,0,0,0,4.825-.291l56.892-21.883c.38.961.781,1.921,1.231,2.875,5.962,12.649,16.865,21.77,32.406,27.107A8,8,0,0,0,408,208V168.573l1.487-.573h19.95l47.2,33.713A8.042,8.042,0,0,1,480,208.23Z" fill="#aa3c3b" data-original="#000000" style=""/><circle xmlns="http://www.w3.org/2000/svg" cx="432" cy="200" r="8" fill="#aa3c3b" data-original="#000000" style=""/></g></svg>
