<?xml version="1.0"?>
<svg xmlns="http://www.w3.org/2000/svg" xmlns:xlink="http://www.w3.org/1999/xlink" xmlns:svgjs="http://svgjs.com/svgjs" version="1.1" width="512" height="512" x="0" y="0" viewBox="0 0 496 496" style="enable-background:new 0 0 512 512" xml:space="preserve" class=""><g>
<rect xmlns="http://www.w3.org/2000/svg" x="224" y="104" style="" width="176" height="160" fill="#f2f2f2" data-original="#ffa64d" class=""/>
<g xmlns="http://www.w3.org/2000/svg">
	<path style="" d="M312,0C210.536,0,128,82.536,128,184c0,31.392,7.92,60.968,21.84,86.848L128,292.688l-18.344-18.344   l-11.312,11.312L116.688,304L15.6,405.088C5.536,415.152,0,428.512,0,442.744C0,472.112,23.888,496,53.256,496   c14.224,0,27.592-5.536,37.656-15.6L192,379.312l18.344,18.344l11.312-11.312L203.312,368l21.84-21.84   C251.032,360.08,280.608,368,312,368c101.464,0,184-82.536,184-184S413.464,0,312,0z M79.6,469.088   C72.56,476.128,63.208,480,53.256,480C32.712,480,16,463.288,16,442.744c0-9.952,3.872-19.304,10.912-26.344L128,315.312   L180.688,368L79.6,469.088z M192,356.688L139.312,304l19-19c13.8,20.936,31.752,38.888,52.688,52.688L192,356.688z M312,352   c-92.632,0-168-75.368-168-168S219.368,16,312,16s168,75.368,168,168S404.632,352,312,352z" fill="#f2f2f2" data-original="#333333" class=""/>
	<path style="" d="M312,32c-83.816,0-152,68.184-152,152s68.184,152,152,152s152-68.184,152-152S395.816,32,312,32z    M312,320c-74.992,0-136-61.008-136-136S237.008,48,312,48s136,61.008,136,136S386.992,320,312,320z" fill="#f2f2f2" data-original="#333333" class=""/>
	<rect x="304" y="104" style="" width="16" height="160" fill="#f2f2f2" data-original="#333333" class=""/>
	<rect x="248" y="128" style="" width="40" height="16" fill="#f2f2f2" data-original="#333333" class=""/>
	<rect x="248" y="160" style="" width="40" height="16" fill="#f2f2f2" data-original="#333333" class=""/>
	<rect x="248" y="192" style="" width="40" height="16" fill="#f2f2f2" data-original="#333333" class=""/>
	<rect x="248" y="224" style="" width="40" height="16" fill="#f2f2f2" data-original="#333333" class=""/>
	<rect x="336" y="128" style="" width="40" height="16" fill="#f2f2f2" data-original="#333333" class=""/>
	<rect x="336" y="160" style="" width="40" height="16" fill="#f2f2f2" data-original="#333333" class=""/>
	<rect x="336" y="192" style="" width="40" height="16" fill="#f2f2f2" data-original="#333333" class=""/>
	<rect x="336" y="224" style="" width="40" height="16" fill="#f2f2f2" data-original="#333333" class=""/>
</g>
<g xmlns="http://www.w3.org/2000/svg">
</g>
<g xmlns="http://www.w3.org/2000/svg">
</g>
<g xmlns="http://www.w3.org/2000/svg">
</g>
<g xmlns="http://www.w3.org/2000/svg">
</g>
<g xmlns="http://www.w3.org/2000/svg">
</g>
<g xmlns="http://www.w3.org/2000/svg">
</g>
<g xmlns="http://www.w3.org/2000/svg">
</g>
<g xmlns="http://www.w3.org/2000/svg">
</g>
<g xmlns="http://www.w3.org/2000/svg">
</g>
<g xmlns="http://www.w3.org/2000/svg">
</g>
<g xmlns="http://www.w3.org/2000/svg">
</g>
<g xmlns="http://www.w3.org/2000/svg">
</g>
<g xmlns="http://www.w3.org/2000/svg">
</g>
<g xmlns="http://www.w3.org/2000/svg">
</g>
<g xmlns="http://www.w3.org/2000/svg">
</g>
</g></svg>
