<?xml version="1.0"?>
<svg xmlns="http://www.w3.org/2000/svg" xmlns:xlink="http://www.w3.org/1999/xlink" xmlns:svgjs="http://svgjs.com/svgjs" version="1.1" width="512" height="512" x="0" y="0" viewBox="0 0 64 64" style="enable-background:new 0 0 512 512" xml:space="preserve" class=""><g><path xmlns="http://www.w3.org/2000/svg" d="m45 17h-18v-15h18z" fill="#f3bb30" data-original="#f0bc5e" style=""/><path xmlns="http://www.w3.org/2000/svg" d="m31 11h2v6h-2z" fill="#404245" data-original="#000000" style="" class=""/><path xmlns="http://www.w3.org/2000/svg" d="m35 11h2v6h-2z" fill="#404245" data-original="#000000" style="" class=""/><path xmlns="http://www.w3.org/2000/svg" d="m39 11h2v6h-2z" fill="#404245" data-original="#000000" style="" class=""/><path xmlns="http://www.w3.org/2000/svg" d="m13 21h2v8h-2z" fill="#404245" data-original="#000000" style="" class=""/><path xmlns="http://www.w3.org/2000/svg" d="m49 5h2v2h-2z" fill="#404245" data-original="#000000" style="" class=""/><path xmlns="http://www.w3.org/2000/svg" d="m57 5h2v2h-2z" fill="#404245" data-original="#000000" style="" class=""/><path xmlns="http://www.w3.org/2000/svg" d="m53 5h2v2h-2z" fill="#404245" data-original="#000000" style="" class=""/><path xmlns="http://www.w3.org/2000/svg" d="m13 5h2v2h-2z" fill="#404245" data-original="#000000" style="" class=""/><path xmlns="http://www.w3.org/2000/svg" d="m17 5h2v2h-2z" fill="#404245" data-original="#000000" style="" class=""/><path xmlns="http://www.w3.org/2000/svg" d="m21 5h2v2h-2z" fill="#404245" data-original="#000000" style="" class=""/><path xmlns="http://www.w3.org/2000/svg" d="m13 13h2v2h-2z" fill="#404245" data-original="#000000" style="" class=""/><path xmlns="http://www.w3.org/2000/svg" d="m13 17h2v2h-2z" fill="#404245" data-original="#000000" style="" class=""/><path xmlns="http://www.w3.org/2000/svg" d="m60 1h-48c-1.654 0-3 1.346-3 3v30.47h2v-23.47h17v-2h-17v-5c0-.552.449-1 1-1h48c.551 0 1 .448 1 1v5h-17v2h17v33c0 .552-.449 1-1 1h-7.184c.112-.314.184-.648.184-1s-.072-.686-.184-1h6.184v-10h-15v-1.758c0-1.713-.667-3.323-1.879-4.536-.45-.448-1.072-.706-1.707-.706-1.331 0-2.414 1.083-2.414 2.414v6.586c0 3.422-1.7 6.598-4.547 8.496-.494.33-1.069.504-1.664.504h-.789v-2h-5.013v2h3.013v14h-9.517v2h11.517v-2h.838l1.922.641c.714.238 1.459.359 2.214.359h14.026c1.654 0 3-1.346 3-3 0-.771-.301-1.468-.78-2 .48-.532.78-1.229.78-2s-.301-1.468-.78-2c.48-.532.78-1.229.78-2 0-.352-.072-.686-.184-1h7.184c1.654 0 3-1.346 3-3v-40c0-1.654-1.346-3-3-3zm-11 46h1c.551 0 1 .448 1 1s-.449 1-1 1h-3v2h3c.551 0 1 .448 1 1s-.449 1-1 1h-3v2h3c.551 0 1 .448 1 1s-.449 1-1 1h-14.026c-.54 0-1.071-.086-1.581-.256l-2.231-.744h-1.162v-10h.789c.991 0 1.95-.29 2.773-.84 3.405-2.269 5.438-6.068 5.438-10.16v-6.586c0-.338.468-.532.707-.293.834.834 1.293 1.942 1.293 3.121v8.758c0 1.654 1.346 3 3 3h4 1c.551 0 1 .448 1 1s-.449 1-1 1h-1-2v2zm1-6h-1-4c-.551 0-1-.448-1-1v-5h13v6z" fill="#404245" data-original="#000000" style="" class=""/><path xmlns="http://www.w3.org/2000/svg" d="m46 37h9v2h-9z" fill="#404245" data-original="#000000" style="" class=""/><path xmlns="http://www.w3.org/2000/svg" d="m14 63.054-.316-.105c-7.587-2.529-12.684-9.601-12.684-17.598v-11.351h5.757c2.469 0 4.79-.961 6.536-2.707l.707-.707.707.707c1.746 1.746 4.067 2.707 6.536 2.707h5.757v11.351c0 7.997-5.097 15.069-12.684 17.598z" fill="#f3bb30" data-original="#f0bc5e" style=""/><path xmlns="http://www.w3.org/2000/svg" d="m12 54.414-3.707-3.707 1.414-1.414 2.293 2.293 9.293-9.293 1.414 1.414z" fill="#404245" data-original="#000000" style="" class=""/><path xmlns="http://www.w3.org/2000/svg" d="m7 44h-2v-6h1.757c1.021 0 2.036-.115 3.017-.343l.452 1.947c-1.05.245-2.134.377-3.226.394z" fill="#404245" data-original="#000000" style="" class=""/><path xmlns="http://www.w3.org/2000/svg" d="m5.279 48.195c-.14-.705-.229-1.428-.263-2.147l1.998-.096c.029.622.105 1.245.227 1.853z" fill="#404245" data-original="#000000" style="" class=""/></g></svg>
