<?xml version="1.0"?>
<svg xmlns="http://www.w3.org/2000/svg" xmlns:xlink="http://www.w3.org/1999/xlink" xmlns:svgjs="http://svgjs.com/svgjs" version="1.1" width="512" height="512" x="0" y="0" viewBox="0 0 496 496" style="enable-background:new 0 0 512 512" xml:space="preserve" class=""><g><path xmlns="http://www.w3.org/2000/svg" d="m152 115.648438h-16v-33.855469l23.144531-5.914063c.160157-.390625.320313-.78125.488281-1.167968l-12.191406-20.542969 42.726563-42.726563 20.535156 12.183594c.394531-.167969.785156-.328125 1.167969-.488281l5.921875-23.136719h60.421875l5.914062 23.144531c.390625.160157.78125.320313 1.167969.488281l20.535156-12.183593 42.726563 42.726562-12.183594 20.535157c.167969.394531.328125.785156.488281 1.167968l23.136719 5.914063v33.847656h-16v-21.433594l-19.257812-4.910156-1.429688-4.03125c-.914062-2.609375-1.976562-5.152344-3.160156-7.625l-1.839844-3.847656 10.144531-17.097657-25.152343-25.152343-17.097657 10.144531-3.847656-1.839844c-2.480469-1.175781-5.015625-2.238281-7.625-3.160156l-4.03125-1.429688-4.910156-19.257812h-35.578125l-4.910156 19.257812-4.03125 1.429688c-2.617188.914062-5.152344 1.976562-7.632813 3.152344l-3.847656 1.839844-17.097657-10.144532-25.152343 25.152344 10.144531 17.097656-1.839844 3.847656c-1.175781 2.480469-2.238281 5.015626-3.160156 7.625l-1.429688 4.03125-19.257812 4.917969zm0 0" fill="#404245" data-original="#000000" style="" class=""/><path xmlns="http://www.w3.org/2000/svg" d="m295.601562 105.734375c-3.105468-23.789063-23.5625-41.734375-47.601562-41.734375-23.992188 0-44.457031 17.902344-47.585938 41.65625l-15.855468-2.097656c4.167968-31.671875 31.449218-55.558594 63.441406-55.558594 32.046875 0 59.335938 23.929688 63.464844 55.671875zm0 0" fill="#404245" data-original="#000000" style="" class=""/><path xmlns="http://www.w3.org/2000/svg" d="m279.128906 119.464844-15.5625-3.703125c.28125-1.234375.433594-2.488281.433594-3.761719 0-8.824219-7.175781-16-16-16s-16 7.175781-16 16c0 1.191406.128906 2.367188.382812 3.488281l-15.605468 3.527344c-.519532-2.28125-.777344-4.640625-.777344-7.015625 0-17.648438 14.351562-32 32-32s32 14.351562 32 32c0 2.511719-.296875 5.023438-.871094 7.464844zm0 0" fill="#404245" data-original="#000000" style="" class=""/><path xmlns="http://www.w3.org/2000/svg" d="m248.328125 338.679688-117.304687-103.511719c-16.96875-14.976563-26.703126-36.535157-26.703126-59.167969v-1.089844c0-43.511718 35.398438-78.910156 78.910157-78.910156 18.035156 0 35.601562 6.191406 49.570312 17.441406l15.3125 12.320313 15.847657-12.609375c13.902343-11.054688 31.351562-17.152344 49.128906-17.152344 21.148437 0 41.007812 8.257812 55.925781 23.238281 14.921875 14.984375 23.082031 34.882813 22.984375 56.035157l-.007812 1.054687c-.097657 22.40625-9.792969 43.816406-26.59375 58.703125zm0 0" fill="#f3bb30" data-original="#f0bc5e" style="" class=""/><path xmlns="http://www.w3.org/2000/svg" d="m218.855469 270-66.664063-58.832031c-10.078125-8.894531-15.871094-21.710938-15.871094-35.167969h16c0 8.863281 3.816407 17.3125 10.464844 23.167969l66.671875 58.832031zm0 0" fill="#404245" data-original="#000000" style="" class=""/><path xmlns="http://www.w3.org/2000/svg" d="m471.03125 264c-6.574219 0-13.007812 2.664062-17.65625 7.3125l-48.6875 48.6875h-27.070312l10.191406-15.289062c2.734375-4.117188 4.191406-8.902344 4.191406-13.855469v-1.886719c0-13.769531-11.199219-24.96875-24.96875-24.96875-6.574219 0-13.007812 2.664062-17.65625 7.3125l-76.96875 76.96875c-10.574219 10.574219-16.40625 24.640625-16.40625 39.597656v44.121094h-16v-44.121094c0-14.957031-5.832031-29.023437-16.40625-39.597656l-76.96875-76.96875c-4.648438-4.648438-11.082031-7.3125-17.65625-7.3125-13.769531 0-24.96875 11.199219-24.96875 24.96875v1.886719c0 4.945312 1.457031 9.738281 4.191406 13.847656l10.191406 15.296875h-27.070312l-48.6875-48.6875c-4.648438-4.648438-11.082031-7.3125-17.65625-7.3125-13.769531 0-24.96875 11.199219-24.96875 24.96875v1.886719c0 4.945312 1.457031 9.738281 4.191406 13.847656l46.898438 70.351563c10.414062 15.625 27.839844 24.945312 46.597656 24.945312h46.3125c4.414062 0 8 3.585938 8 8v24h-16v64h224v-64h-16v-24c0-4.414062 3.585938-8 8-8h46.3125c18.757812 0 36.175781-9.320312 46.589844-24.9375l46.898437-70.351562c2.742188-4.117188 4.199219-8.902344 4.199219-13.855469v-1.886719c0-13.769531-11.199219-24.96875-24.96875-24.96875zm-327.03125 120h-46.3125c-13.398438 0-25.839844-6.65625-33.28125-17.816406l-46.894531-70.351563c-.992188-1.472656-1.511719-3.199219-1.511719-4.976562v-1.886719c0-4.945312 4.023438-8.96875 8.96875-8.96875 2.359375 0 4.671875.953125 6.34375 2.625l53.375 53.375h44.367188l8.289062 12.441406 13.3125-8.875-29.152344-43.726562c-.984375-1.480469-1.503906-3.207032-1.503906-4.984375v-1.886719c0-4.945312 4.023438-8.96875 8.96875-8.96875 2.359375 0 4.671875.953125 6.34375 2.625l76.96875 76.96875c7.550781 7.550781 11.71875 17.597656 11.71875 28.285156v44.121094h-56v-24c0-13.230469-10.769531-24-24-24zm96 96h-88v-32h88zm104 0h-88v-32h88zm136-189.144531c0 1.777343-.519531 3.503906-1.503906 4.976562l-46.894532 70.351563c-7.441406 11.160156-19.890624 17.816406-33.289062 17.816406h-46.3125c-13.230469 0-24 10.769531-24 24v24h-56v-44.121094c0-10.6875 4.167969-20.734375 11.71875-28.285156l76.96875-76.96875c1.671875-1.671875 3.984375-2.625 6.34375-2.625 4.945312 0 8.96875 4.023438 8.96875 8.96875v1.886719c0 1.777343-.519531 3.503906-1.503906 4.976562l-29.152344 43.726563 13.3125 8.875 8.289062-12.433594h44.367188l53.375-53.375c1.671875-1.671875 3.984375-2.625 6.34375-2.625 4.945312 0 8.96875 4.023438 8.96875 8.96875zm0 0" fill="#404245" data-original="#000000" style="" class=""/></g></svg>
